<svg width="31" height="39" viewBox="0 0 31 39" fill="none" xmlns="http://www.w3.org/2000/svg">
<path d="M16.4146 1.06268L15.1811 0L13.9476 1.06268C13.2835 1.55606 0 13.1317 0 23.3789C0 27.4052 1.59943 31.2666 4.44644 34.1136C7.29345 36.9606 11.1548 38.56 15.1811 38.56C19.2074 38.56 23.0688 36.9606 25.9158 34.1136C28.7628 31.2666 30.3622 27.4052 30.3622 23.3789C30.3622 13.1317 17.0787 1.55606 16.4146 1.06268Z" fill="#C70606"/>
<path d="M9.93359 28.2422H6.85156L6.26562 30H4.39648L7.57227 21.4688H9.20117L12.3945 30H10.5254L9.93359 28.2422ZM7.32617 26.8184H9.45898L8.38672 23.625L7.32617 26.8184ZM13.1914 30V21.4688H16.1797C17.2148 21.4688 18 21.668 18.5352 22.0664C19.0703 22.4609 19.3379 23.041 19.3379 23.8066C19.3379 24.2246 19.2305 24.5938 19.0156 24.9141C18.8008 25.2305 18.502 25.4629 18.1191 25.6113C18.5566 25.7207 18.9004 25.9414 19.1504 26.2734C19.4043 26.6055 19.5312 27.0117 19.5312 27.4922C19.5312 28.3125 19.2695 28.9336 18.7461 29.3555C18.2227 29.7773 17.4766 29.9922 16.5078 30H13.1914ZM14.9492 26.2852V28.5879H16.4551C16.8691 28.5879 17.1914 28.4902 17.4219 28.2949C17.6562 28.0957 17.7734 27.8223 17.7734 27.4746C17.7734 26.6934 17.3691 26.2969 16.5605 26.2852H14.9492ZM14.9492 25.043H16.25C17.1367 25.0273 17.5801 24.6738 17.5801 23.9824C17.5801 23.5957 17.4668 23.3184 17.2402 23.1504C17.0176 22.9785 16.6641 22.8926 16.1797 22.8926H14.9492V25.043ZM24.1602 25.2246H26.2754V26.7539H24.1602V29.1445H22.5488V26.7539H20.4277V25.2246H22.5488V22.9336H24.1602V25.2246Z" fill="white"/>
</svg>
