<svg width="19" height="29" viewBox="0 0 19 29" fill="none" xmlns="http://www.w3.org/2000/svg">
<path d="M8.43619 19.5142C5.93937 19.1991 3.90843 18.1034 2.34483 16.2423C0.781221 14.3661 0 12.2168 0 9.79584C0 7.10321 0.928264 4.79781 2.78304 2.87815C4.63928 0.959983 6.87841 0 9.50189 0C12.1021 0 14.3412 0.962984 16.2047 2.88715C18.0682 4.81282 19 7.11522 19 9.79584C19 12.2168 18.2138 14.3661 16.656 16.2423C15.0837 18.1034 13.0469 19.1991 10.5501 19.5142V23.1915H14.0792V25.3678H10.5501V29H8.43619V25.3678H4.93191V23.1915H8.43619V19.5142ZM9.50189 17.413C11.5299 17.413 13.2682 16.6625 14.7197 15.1766C16.161 13.6937 16.889 11.8986 16.889 9.79584C16.889 7.69457 16.1756 5.89948 14.7197 4.41058C13.2828 2.92317 11.5416 2.17872 9.50189 2.17872C7.46367 2.17872 5.72245 2.92618 4.27822 4.41958C2.83546 5.91299 2.11334 7.70508 2.11334 9.79584C2.11334 11.8986 2.83546 13.6937 4.27822 15.1766C5.72245 16.6625 7.46367 17.413 9.50189 17.413Z" fill="#FF01C7"/>
</svg>
