<svg width="23" height="23" viewBox="0 0 23 23" fill="none" xmlns="http://www.w3.org/2000/svg">
<g clip-path="url(#clip0)">
<path d="M18.0022 0L17.0503 1.66593H19.4302L15.0274 6.06873C11.0781 3.11791 5.52007 3.71927 2.29334 7.44653C-0.933393 11.1738 -0.732593 16.7606 2.7534 20.2466C6.23939 23.7326 11.8262 23.9334 15.5535 20.7067C19.2807 17.4799 19.8821 11.9219 16.9313 7.97265L21.3341 3.56984V5.94974L23 4.99778V0H18.0022ZM9.4346 6.7827C13.1806 6.7827 16.2173 9.81942 16.2173 13.5654C16.2173 17.3114 13.1806 20.3481 9.4346 20.3481C5.68862 20.3481 2.6519 17.3114 2.6519 13.5654C2.6519 9.81942 5.68862 6.7827 9.4346 6.7827Z" fill="#00BFFF"/>
</g>
<defs>
<clipPath id="clip0">
<rect width="23" height="23" fill="white"/>
</clipPath>
</defs>
</svg>
