<svg width="30" height="30" viewBox="0 0 30 30" fill="none" xmlns="http://www.w3.org/2000/svg">
<path fill-rule="evenodd" clip-rule="evenodd" d="M19.0443 15.6811C19.0495 15.0272 19.5838 14.5014 20.238 14.5069C20.8919 14.5121 21.4174 15.0465 21.4121 15.7004C21.4069 16.3546 20.8726 16.8802 20.2187 16.8749C19.5645 16.8696 19.0387 16.335 19.0443 15.6811ZM23.0699 21.2753C23.8735 20.4851 24.3751 19.389 24.3849 18.1729C24.3947 16.9575 23.9108 15.8528 23.1207 15.0502C22.3308 14.2469 21.234 13.7453 20.0186 13.7354C18.8032 13.7255 17.6981 14.2092 16.8952 14.9991C16.1397 15.7427 15.6444 16.7576 15.5878 17.8882C15.5766 18.1126 15.8115 18.0949 16.014 17.922C16.3154 17.6651 16.6279 17.5059 16.9562 17.7241C17.2968 18.0006 17.3565 18.3727 17.1497 18.8065C16.9666 19.1302 16.7554 19.4853 16.6846 19.7071C16.5925 19.9954 16.9093 20.2696 17.2619 19.8922C17.5272 19.6085 17.7415 18.9542 18.053 18.7829C18.7826 18.3819 19.9659 19.0915 20.2221 19.4597C20.3161 19.3837 20.4826 18.4464 20.341 18.416C20.1523 18.5156 19.7926 18.4795 19.1764 18.2132C18.6637 17.9914 18.4036 17.7209 18.5268 17.3696C18.8927 16.7265 19.4152 17.1763 20.1363 17.3667C20.6205 17.5007 20.8789 16.7481 21.2725 16.6433C23.0886 16.1591 23.2869 19.9315 21.7317 20.9399C21.4343 21.1325 20.9084 21.3035 20.3473 21.2055C19.3795 21.0368 19.2298 20.6122 18.9913 21.4431C18.9229 21.6826 18.8275 21.908 18.4327 21.8179C17.8365 21.6823 18.0993 20.913 18.2454 20.3437C18.4272 19.6347 18.8062 19.486 19.2966 19.524C19.5161 19.5407 19.808 19.6545 20.0724 19.7291C19.809 19.3609 19.0054 18.8865 18.3613 19.0169C17.997 19.0693 17.9085 19.7222 17.5515 20.1006C16.932 20.7574 15.7736 20.2015 16.6257 18.9877C16.7567 18.8007 16.8429 18.6257 16.8898 18.4744C17.052 17.9476 16.6493 17.7851 16.1743 18.172C15.8873 18.4134 15.752 18.5058 15.5996 18.5477C15.6956 19.5863 16.1526 20.5213 16.8448 21.2249C17.6347 22.0276 18.7315 22.5295 19.9472 22.5393C21.1626 22.549 22.2672 22.0655 23.0699 21.2753ZM8.98846 4.15043C8.88393 5.61281 8.41283 7.4052 8.86201 9.36738C9.04119 10.3079 9.42387 11.5876 9.80256 12.3904C11.035 15.0033 11.5893 16.7484 10.0853 19.3997C9.68039 20.1142 9.0815 20.9162 8.67064 21.672C7.92832 23.0381 7.62035 24.6833 7.85068 26.2273C7.86211 26.3033 7.87459 26.38 7.88772 26.456C7.00775 25.9082 6.19564 25.2625 5.46674 24.5336C3.02707 22.0935 1.51775 18.7228 1.51775 14.9996C1.51775 11.2767 3.02707 7.90588 5.46674 5.46633C6.14027 4.79262 6.88494 4.19016 7.6882 3.67072C8.89576 2.88979 8.99859 4.00529 8.98846 4.15043ZM15 0C23.2845 0 30 6.71555 30 14.9996C30 23.2842 23.2845 30 15 30C6.7159 30 0 23.2842 0 14.9996C0 6.71555 6.7159 0 15 0ZM19.7424 27.6242C19.4154 25.7196 19.7368 24.9779 21.3523 24.0074C23.6187 22.646 24.7718 20.8582 25.0326 19.0292C25.2063 19.0056 25.3399 18.8641 25.3399 18.693C25.3399 18.5405 25.2341 18.4113 25.0883 18.3687C25.1617 15.6313 23.3035 12.9048 20.2417 11.4689C19.7196 11.1908 19.3733 11.1652 19.4705 10.7269C19.5855 10.2086 19.5833 9.84381 19.4067 9.37254C19.122 8.61299 17.1527 7.03576 16.2774 6.34465C13.9792 4.60998 14.3596 2.28838 15.8498 1.54395C19.2347 1.75441 22.2811 3.21375 24.5337 5.46633C26.9733 7.90582 28.4823 11.2767 28.4823 14.9996C28.4823 18.7228 26.9733 22.0935 24.5337 24.5336C23.1875 25.8795 21.5583 26.9422 19.7424 27.6242Z" fill="#236576"/>
</svg>
